<svg width="13" height="15" viewBox="0 0 13 15" fill="none" xmlns="http://www.w3.org/2000/svg">
<path d="M12.8571 3.21429C12.8571 4.59286 11.7357 5.71429 10.3571 5.71429C8.97857 5.71429 7.85714 4.59286 7.85714 3.21429C7.85714 1.83572 8.97857 0.714289 10.3571 0.714289C11.7357 0.714289 12.8571 1.83572 12.8571 3.21429ZM11.4286 6.99286C11.0714 7.08572 10.7143 7.14286 10.3571 7.14286C9.3158 7.14097 8.31765 6.72646 7.58131 5.99012C6.84497 5.25378 6.43046 4.25563 6.42857 3.21429C6.42857 2.16429 6.84286 1.21429 7.5 0.507146C7.37037 0.348247 7.20693 0.220268 7.02158 0.132535C6.83622 0.0448022 6.63364 -0.000474646 6.42857 3.75192e-06C5.64286 3.75192e-06 5 0.642861 5 1.42857V1.63572C2.87857 2.26429 1.42857 4.21429 1.42857 6.42857V10.7143L0 12.1429V12.8571H12.8571V12.1429L11.4286 10.7143V6.99286ZM6.42857 15C7.22143 15 7.85714 14.3643 7.85714 13.5714H5C5 13.9503 5.15051 14.3137 5.41842 14.5816C5.68633 14.8495 6.04969 15 6.42857 15Z" fill="black"/>
</svg>
