<svg width="15" height="14" viewBox="0 0 15 14" fill="none" xmlns="http://www.w3.org/2000/svg">
<path d="M14.8661 3.32317C14.7971 3.22347 14.705 3.14199 14.5976 3.08569C14.4903 3.02939 14.3709 2.99996 14.2496 2.99992H3.99964L3.13417 0.922479C3.02069 0.648902 2.82853 0.415184 2.58205 0.250955C2.33557 0.0867261 2.04588 -0.000615764 1.7497 3.26784e-06H0V1.49996H1.7497L5.30761 10.0385C5.3646 10.1751 5.46074 10.2918 5.58392 10.3739C5.7071 10.4559 5.85182 10.4997 5.99984 10.4997H11.9997C12.3124 10.4997 12.5922 10.3055 12.7024 10.0137L14.9524 4.0139C14.9949 3.90037 15.0092 3.77822 14.9942 3.65792C14.9792 3.53762 14.9352 3.42276 14.8661 3.32317Z" fill="#434343"/>
<path d="M6.37497 13.4997C6.99627 13.4997 7.49994 12.996 7.49994 12.3747C7.49994 11.7534 6.99627 11.2498 6.37497 11.2498C5.75367 11.2498 5.25 11.7534 5.25 12.3747C5.25 12.996 5.75367 13.4997 6.37497 13.4997Z" fill="#434343"/>
<path d="M11.625 13.4995C12.2463 13.4995 12.7499 12.9958 12.7499 12.3745C12.7499 11.7532 12.2463 11.2495 11.625 11.2495C11.0037 11.2495 10.5 11.7532 10.5 12.3745C10.5 12.9958 11.0037 13.4995 11.625 13.4995Z" fill="#434343"/>
</svg>
