<svg width="15" height="15" viewBox="0 0 15 15" fill="none" xmlns="http://www.w3.org/2000/svg">
<path d="M7.5 0C11.6419 0 15 3.35813 15 7.5C15 11.6419 11.6419 15 7.5 15C3.35813 15 0 11.6419 0 7.5C0 3.35813 3.35813 0 7.5 0ZM7.5 3.75C7.38673 3.75 7.27729 3.79103 7.19192 3.86548C7.10655 3.93993 7.05103 4.04278 7.03562 4.155L7.03125 4.21875V7.03125H4.21875C4.09999 7.03129 3.98566 7.0764 3.89888 7.15748C3.8121 7.23856 3.75933 7.34956 3.75123 7.46805C3.74314 7.58654 3.78032 7.70368 3.85527 7.79581C3.93022 7.88794 4.03734 7.94819 4.155 7.96438L4.21875 7.96875H7.03125V10.7812C7.03129 10.9 7.0764 11.0143 7.15748 11.1011C7.23856 11.1879 7.34956 11.2407 7.46805 11.2488C7.58654 11.2569 7.70368 11.2197 7.79581 11.1447C7.88794 11.0698 7.94819 10.9627 7.96438 10.845L7.96875 10.7812V7.96875H10.7812C10.9 7.96871 11.0143 7.9236 11.1011 7.84252C11.1879 7.76144 11.2407 7.65044 11.2488 7.53195C11.2569 7.41346 11.2197 7.29632 11.1447 7.20419C11.0698 7.11206 10.9627 7.05181 10.845 7.03562L10.7812 7.03125H7.96875V4.21875C7.96875 4.09443 7.91936 3.9752 7.83146 3.88729C7.74355 3.79939 7.62432 3.75 7.5 3.75Z" fill="#434343"/>
</svg>
