<svg width="16" height="16" viewBox="0 0 16 16" fill="none" xmlns="http://www.w3.org/2000/svg">
<path d="M15.4343 5.48108C16.3913 4.52404 15.9549 3.40622 15.4343 2.86262L13.1374 0.565727C12.1727 -0.391311 11.0625 0.0450984 10.5189 0.565727L9.21735 1.87496H7.23437C5.77967 1.87496 4.93748 2.64059 4.50872 3.52106L1.10933 6.92046V9.98298L0.565727 10.5189C-0.391311 11.4836 0.0450984 12.5938 0.565727 13.1374L2.86262 15.4343C3.27606 15.8477 3.72013 16.0008 4.14122 16.0008C4.68482 16.0008 5.18248 15.7329 5.48108 15.4343L7.54828 13.3594H10.2969C11.5985 13.3594 12.2569 12.5478 12.4943 11.7516C13.3594 11.5219 13.8341 10.8635 14.0255 10.2203C15.2122 9.91408 15.6563 8.7886 15.6563 8V5.70311H15.2046L15.4343 5.48108ZM14.125 8C14.125 8.34453 13.9796 8.76563 13.3594 8.76563H12.5938V9.53126C12.5938 9.8758 12.4483 10.2969 11.8282 10.2969H11.0625V11.0625C11.0625 11.4071 10.9171 11.8282 10.2969 11.8282H6.92046L4.40919 14.3394C4.17185 14.5615 4.03403 14.4313 3.94981 14.3471L1.66058 12.0655C1.43855 11.8282 1.5687 11.6903 1.65292 11.6061L2.64059 10.6108V7.54828L4.17185 6.01702V7.23437C4.17185 8.16078 4.78435 9.53126 6.46874 9.53126C8.15313 9.53126 8.76563 8.16078 8.76563 7.23437H14.125V8ZM14.3471 4.39388L13.0455 5.70311H7.23437V7.23437C7.23437 7.5789 7.0889 8 6.46874 8C5.84858 8 5.70311 7.5789 5.70311 7.23437V4.93748C5.70311 4.58529 5.83327 3.40622 7.23437 3.40622H9.84517L11.5908 1.66058C11.8282 1.43855 11.966 1.5687 12.0502 1.65292L14.3394 3.9345C14.5615 4.17185 14.4313 4.30966 14.3471 4.39388Z" fill="#434343"/>
</svg>
