<svg width="18" height="19" viewBox="0 0 18 19" fill="none" xmlns="http://www.w3.org/2000/svg">
<path d="M9.12714 17.6617L9 17.6358L8.87286 17.6617C6.81708 18.0725 4.87719 17.8433 3.45881 16.7103C2.04995 15.5817 1 13.4308 1 9.64873C1 5.78019 1.87178 4.20873 3.01946 3.63446C3.62054 3.33435 4.39719 3.247 5.38487 3.36029C6.37168 3.47446 7.5107 3.78235 8.79503 4.21046L9.01989 4.28483L9.24043 4.19662C11.387 3.33867 13.3165 3.00916 14.6718 3.64224C15.9431 4.23467 17 5.83727 17 9.64873C17 13.4316 15.9509 15.5817 14.5412 16.7095C13.1228 17.8442 11.1829 18.0725 9.12714 17.6608V17.6617Z" stroke="#434343" stroke-width="1.5"/>
<path d="M8.99987 4.02703C8.99987 1.86486 8.135 1 6.40527 1" stroke="#434343" stroke-width="1.5" stroke-linecap="round" stroke-linejoin="round"/>
<path d="M9 4.45947V17.4324" stroke="#434343" stroke-width="1.5"/>
<path d="M6.40527 9.64844V11.3782" stroke="#434343" stroke-width="1.5" stroke-linecap="round" stroke-linejoin="round"/>
</svg>
