<svg width="16" height="13" viewBox="0 0 16 13" fill="none" xmlns="http://www.w3.org/2000/svg">
<path d="M8.48 10.16L10.32 8.76L12.16 10.16L11.48 7.88L13.32 6.4H11.04L10.32 4.16L9.6 6.4H7.32L9.16 7.88L8.48 10.16ZM1.6 12.8C1.16 12.8 0.783467 12.6435 0.4704 12.3304C0.1568 12.0168 0 11.64 0 11.2V1.6C0 1.16 0.1568 0.783467 0.4704 0.4704C0.783467 0.1568 1.16 0 1.6 0H6.4L8 1.6H14.4C14.84 1.6 15.2168 1.7568 15.5304 2.0704C15.8435 2.38347 16 2.76 16 3.2V11.2C16 11.64 15.8435 12.0168 15.5304 12.3304C15.2168 12.6435 14.84 12.8 14.4 12.8H1.6ZM1.6 1.6V11.2H14.4V3.2H7.34L5.74 1.6H1.6ZM1.6 1.6V11.2V1.6Z" fill="#434343"/>
</svg>
