<svg width="18" height="18" viewBox="0 0 18 18" fill="none" xmlns="http://www.w3.org/2000/svg">
<path d="M9 17C13.4183 17 17 13.4183 17 9C17 4.58172 13.4183 1 9 1C4.58172 1 1 4.58172 1 9C1 13.4183 4.58172 17 9 17Z" stroke="#434343" stroke-width="1.5" stroke-linecap="round" stroke-linejoin="round"/>
<path d="M6.33301 7.22222H6.3419M11.6663 7.22222H11.6752M6.77745 11.6667C7.06712 11.9623 7.41287 12.1972 7.79445 12.3575C8.17603 12.5179 8.58577 12.6005 8.99967 12.6005C9.41357 12.6005 9.82331 12.5179 10.2049 12.3575C10.5865 12.1972 10.9322 11.9623 11.2219 11.6667M8.99967 1C8.52818 1 8.07599 1.1873 7.7426 1.5207C7.4092 1.8541 7.2219 2.30628 7.2219 2.77778C7.2219 3.24927 7.4092 3.70146 7.7426 4.03486C8.07599 4.36825 8.52818 4.55556 8.99967 4.55556" stroke="#434343" stroke-width="1.5" stroke-linecap="round" stroke-linejoin="round"/>
</svg>
