<svg width="16" height="17" viewBox="0 0 16 17" fill="none" xmlns="http://www.w3.org/2000/svg">
<path d="M11.3684 15.1579H12.2105V13.0526H14.3158V12.2105H12.2105V10.1053H11.3684V12.2105H9.26316V13.0526H11.3684V15.1579ZM11.7895 16.8421C10.6246 16.8421 9.63172 16.4317 8.81095 15.6109C7.98961 14.7896 7.57895 13.7965 7.57895 12.6316C7.57895 11.4667 7.98961 10.4735 8.81095 9.65221C9.63172 8.83144 10.6246 8.42105 11.7895 8.42105C12.9544 8.42105 13.9475 8.83144 14.7688 9.65221C15.5896 10.4735 16 11.4667 16 12.6316C16 13.7965 15.5896 14.7896 14.7688 15.6109C13.9475 16.4317 12.9544 16.8421 11.7895 16.8421ZM0 15.1579V5.05263L6.73684 0L13.4737 5.05263V6.98947C13.207 6.90526 12.9333 6.84211 12.6526 6.8C12.3719 6.75789 12.0842 6.73684 11.7895 6.73684V5.89474L6.73684 2.10526L1.68421 5.89474V13.4737H5.95789C6 13.7684 6.06316 14.0561 6.14737 14.3368C6.23158 14.6175 6.33684 14.8912 6.46316 15.1579H0Z" fill="#434343"/>
</svg>
