<svg width="16" height="13" viewBox="0 0 16 13" fill="none" xmlns="http://www.w3.org/2000/svg">
<path d="M4 12.8H1.6C1.16 12.8 0.783467 12.6435 0.4704 12.3304C0.1568 12.0168 0 11.64 0 11.2V1.6C0 1.16 0.1568 0.783467 0.4704 0.4704C0.783467 0.1568 1.16 0 1.6 0H14.4V1.6H1.6V11.2H4V12.8ZM5.6 12.8V11.36C5.34667 11.1333 5.14987 10.8699 5.0096 10.5696C4.86987 10.2699 4.8 9.94667 4.8 9.6C4.8 9.25333 4.86987 8.92987 5.0096 8.6296C5.14987 8.32987 5.34667 8.06667 5.6 7.84V6.4H8.8V7.84C9.05333 8.06667 9.25013 8.32987 9.3904 8.6296C9.53013 8.92987 9.6 9.25333 9.6 9.6C9.6 9.94667 9.53013 10.2699 9.3904 10.5696C9.25013 10.8699 9.05333 11.1333 8.8 11.36V12.8H5.6ZM7.2 10.8C7.53333 10.8 7.81653 10.6832 8.0496 10.4496C8.2832 10.2165 8.4 9.93333 8.4 9.6C8.4 9.26667 8.2832 8.98347 8.0496 8.7504C7.81653 8.5168 7.53333 8.4 7.2 8.4C6.86667 8.4 6.58347 8.5168 6.3504 8.7504C6.1168 8.98347 6 9.26667 6 9.6C6 9.93333 6.1168 10.2165 6.3504 10.4496C6.58347 10.6832 6.86667 10.8 7.2 10.8ZM15.2 12.8H11.2C10.9733 12.8 10.7835 12.7232 10.6304 12.5696C10.4768 12.4165 10.4 12.2267 10.4 12V4.8C10.4 4.57333 10.4768 4.3832 10.6304 4.2296C10.7835 4.07653 10.9733 4 11.2 4H15.2C15.4267 4 15.6165 4.07653 15.7696 4.2296C15.9232 4.3832 16 4.57333 16 4.8V12C16 12.2267 15.9232 12.4165 15.7696 12.5696C15.6165 12.7232 15.4267 12.8 15.2 12.8ZM12 11.2H14.4V5.6H12V11.2Z" fill="#434343"/>
</svg>
