<svg width="18" height="20" viewBox="0 0 18 20" fill="none" xmlns="http://www.w3.org/2000/svg">
<path d="M17.1429 4.28572C17.1429 6.12381 15.6476 7.61905 13.8095 7.61905C11.9714 7.61905 10.4762 6.12381 10.4762 4.28572C10.4762 2.44762 11.9714 0.952386 13.8095 0.952386C15.6476 0.952386 17.1429 2.44762 17.1429 4.28572ZM15.2381 9.32381C14.7619 9.44762 14.2857 9.52381 13.8095 9.52381C12.4211 9.52129 11.0902 8.96862 10.1084 7.98683C9.12662 7.00504 8.57394 5.67417 8.57143 4.28572C8.57143 2.88572 9.12381 1.61905 10 0.676195C9.82716 0.464329 9.60924 0.293691 9.3621 0.176714C9.11497 0.0597363 8.84485 -0.000632861 8.57143 5.00256e-06C7.52381 5.00256e-06 6.66667 0.857148 6.66667 1.90477V2.18096C3.83809 3.01905 1.90476 5.61905 1.90476 8.57143V14.2857L0 16.1905V17.1429H17.1429V16.1905L15.2381 14.2857V9.32381ZM8.57143 20C9.62857 20 10.4762 19.1524 10.4762 18.0952H6.66667C6.66667 18.6004 6.86734 19.0849 7.22456 19.4421C7.58177 19.7993 8.06625 20 8.57143 20Z" fill="black"/>
</svg>
