<svg width="23" height="20" viewBox="0 0 23 20" fill="none" xmlns="http://www.w3.org/2000/svg">
<path d="M22.0244 4.92334C21.9222 4.77564 21.7858 4.65492 21.6267 4.57151C21.4676 4.48811 21.2907 4.44451 21.1111 4.44445H5.92555L4.64333 1.36667C4.47521 0.961362 4.19052 0.615103 3.82536 0.371795C3.4602 0.128487 3.03102 -0.000912267 2.59222 4.84138e-06H0V2.22223H2.59222L7.86333 14.8722C7.94776 15.0746 8.09019 15.2475 8.27269 15.3691C8.45519 15.4907 8.66959 15.5556 8.88889 15.5556H17.7778C18.2411 15.5556 18.6556 15.2678 18.8189 14.8356L22.1522 5.94667C22.2152 5.77847 22.2365 5.59751 22.2142 5.41928C22.192 5.24106 22.1269 5.07088 22.0244 4.92334Z" fill="black"/>
<path d="M9.44401 20.0001C10.3645 20.0001 11.1107 19.2539 11.1107 18.3334C11.1107 17.4129 10.3645 16.6667 9.44401 16.6667C8.52354 16.6667 7.77734 17.4129 7.77734 18.3334C7.77734 19.2539 8.52354 20.0001 9.44401 20.0001Z" fill="black"/>
<path d="M17.2214 20.0001C18.1418 20.0001 18.888 19.2539 18.888 18.3334C18.888 17.4129 18.1418 16.6667 17.2214 16.6667C16.3009 16.6667 15.5547 17.4129 15.5547 18.3334C15.5547 19.2539 16.3009 20.0001 17.2214 20.0001Z" fill="black"/>
</svg>
