<svg width="104" height="97" viewBox="0 0 104 97" fill="none" xmlns="http://www.w3.org/2000/svg">
<path d="M92.8571 14.8571H78V11.1429C78 8.18759 76.826 5.35336 74.7363 3.26367C72.6466 1.17398 69.8124 0 66.8571 0H37.1429C34.1876 0 31.3534 1.17398 29.2637 3.26367C27.174 5.35336 26 8.18759 26 11.1429V14.8571H11.1429C8.1903 14.866 5.36119 16.0428 3.27341 18.1306C1.18563 20.2183 0.00881805 23.0474 0 26V37.1429C0 42.0683 1.95663 46.792 5.43945 50.2748C8.92226 53.7577 13.646 55.7143 18.5714 55.7143H29.7143V44.5714C29.7143 43.5863 30.1056 42.6416 30.8022 41.945C31.4987 41.2485 32.4435 40.8571 33.4286 40.8571C34.4137 40.8571 35.3584 41.2485 36.055 41.945C36.7515 42.6416 37.1429 43.5863 37.1429 44.5714V55.7143H66.8571V44.5714C66.8571 43.5863 67.2485 42.6416 67.945 41.945C68.6416 41.2485 69.5863 40.8571 70.5714 40.8571C71.5565 40.8571 72.5013 41.2485 73.1978 41.945C73.8944 42.6416 74.2857 43.5863 74.2857 44.5714V55.7143H85.4286C90.354 55.7143 95.0777 53.7577 98.5606 50.2748C102.043 46.792 104 42.0683 104 37.1429V26C103.991 23.0474 102.814 20.2183 100.727 18.1306C98.6388 16.0428 95.8097 14.866 92.8571 14.8571ZM33.4286 11.1429C33.4286 10.1578 33.8199 9.21303 34.5165 8.51646C35.213 7.8199 36.1578 7.42857 37.1429 7.42857H66.8571C67.8422 7.42857 68.787 7.8199 69.4835 8.51646C70.1801 9.21303 70.5714 10.1578 70.5714 11.1429V14.8571H33.4286V11.1429Z" fill="#979494"/>
<path d="M18.5705 63.1429C13.2522 63.1646 8.05915 61.5288 3.71338 58.4629V85.4286C3.7222 88.3812 4.899 91.2103 6.98679 93.2981C9.07457 95.3858 11.9037 96.5626 14.8562 96.5715H89.1419C92.0945 96.5626 94.9236 95.3858 97.0114 93.2981C99.0992 91.2103 100.276 88.3812 100.285 85.4286V58.4629C95.939 61.5288 90.746 63.1646 85.4277 63.1429H18.5705Z" fill="#363535" fill-opacity="0.9"/>
</svg>
