<svg width="12" height="12" viewBox="0 0 12 12" fill="none" xmlns="http://www.w3.org/2000/svg">
<path d="M10.1038 0L11.9998 1.89593L10.5544 3.3419L8.65851 1.44597L10.1038 0ZM3.15967 8.84011H5.0556L9.66083 4.23488L7.76489 2.33895L3.15967 6.94417V8.84011Z" fill="#E35C1B"/>
<path d="M10.1116 10.7362H3.25974C3.24331 10.7362 3.22625 10.7425 3.20982 10.7425C3.18896 10.7425 3.16811 10.7368 3.14662 10.7362H1.26396V1.88847H5.59111L6.85507 0.624512H1.26396C0.566884 0.624512 0 1.19076 0 1.88847V10.7362C0 11.4339 0.566884 12.0001 1.26396 12.0001H10.1116C10.4469 12.0001 10.7684 11.867 11.0054 11.6299C11.2424 11.3929 11.3756 11.0714 11.3756 10.7362V5.25817L10.1116 6.52213V10.7362Z" fill="#E35C1B"/>
</svg>
