<svg width="20" height="20" viewBox="0 0 20 20" fill="none" xmlns="http://www.w3.org/2000/svg">
<path fill-rule="evenodd" clip-rule="evenodd" d="M14.3251 12.8981L19.7048 18.2779C19.8939 18.4671 20.0001 18.7237 20 18.9912C19.9999 19.2587 19.8935 19.5152 19.7043 19.7043C19.5151 19.8934 19.2585 19.9996 18.991 19.9995C18.7235 19.9994 18.467 19.8931 18.2779 19.7038L12.8981 14.3241C11.2899 15.5697 9.26759 16.1559 7.24253 15.9634C5.21748 15.7708 3.34182 14.8141 1.99713 13.2877C0.652446 11.7614 -0.0602623 9.7801 0.00399614 7.74693C0.0682545 5.71376 0.904653 3.78143 2.34304 2.34304C3.78143 0.904653 5.71376 0.0682545 7.74693 0.00399614C9.7801 -0.0602623 11.7614 0.652446 13.2877 1.99713C14.8141 3.34182 15.7708 5.21748 15.9634 7.24253C16.1559 9.26759 15.5697 11.2899 14.3241 12.8981H14.3251ZM8.00037 13.9991C9.5916 13.9991 11.1176 13.367 12.2428 12.2418C13.368 11.1166 14.0001 9.5906 14.0001 7.99937C14.0001 6.40815 13.368 4.88209 12.2428 3.75693C11.1176 2.63176 9.5916 1.99965 8.00037 1.99965C6.40915 1.99965 4.88309 2.63176 3.75793 3.75693C2.63276 4.88209 2.00065 6.40815 2.00065 7.99937C2.00065 9.5906 2.63276 11.1166 3.75793 12.2418C4.88309 13.367 6.40915 13.9991 8.00037 13.9991Z" fill="black"/>
</svg>
