<svg width="15" height="14" viewBox="0 0 15 14" fill="none" xmlns="http://www.w3.org/2000/svg">
<path d="M9.8077 7.78846C9.8077 7.56025 9.87537 7.33716 10.0022 7.14741C10.1289 6.95766 10.3091 6.80977 10.52 6.72244C10.7308 6.63511 10.9628 6.61226 11.1866 6.65678C11.4105 6.7013 11.6161 6.8112 11.7774 6.97256C11.9388 7.13393 12.0487 7.33953 12.0932 7.56335C12.1377 7.78718 12.1149 8.01918 12.0276 8.23001C11.9402 8.44085 11.7923 8.62106 11.6026 8.74784C11.4128 8.87463 11.1898 8.9423 10.9615 8.9423C10.6555 8.9423 10.362 8.82073 10.1456 8.60435C9.92926 8.38796 9.8077 8.09447 9.8077 7.78846ZM15 4.32692V11.8269C14.9981 12.2089 14.8455 12.5746 14.5755 12.8447C14.3054 13.1148 13.9396 13.2673 13.5577 13.2692H2.01924C1.48429 13.2673 0.971797 13.054 0.593529 12.6757C0.215261 12.2974 0.00191164 11.7849 1.12688e-05 11.25V2.32211C-0.00093724 2.01812 0.0580007 1.71691 0.17346 1.43569C0.288919 1.15447 0.458639 0.898744 0.672928 0.683115C0.887217 0.467487 1.14188 0.296177 1.42237 0.178968C1.70287 0.061759 2.0037 0.000945558 2.3077 0H11.8269C12.0564 0 12.2766 0.091174 12.4388 0.253465C12.6011 0.415756 12.6923 0.63587 12.6923 0.865384C12.6923 1.0949 12.6011 1.31501 12.4388 1.4773C12.2766 1.63959 12.0564 1.73077 11.8269 1.73077H2.3077C2.15115 1.73224 2.00125 1.79427 1.88943 1.90384C1.78729 2.01349 1.73058 2.15784 1.73078 2.30769V2.32211C1.74181 2.47641 1.81146 2.62064 1.92543 2.72523C2.03941 2.82982 2.18908 2.88685 2.34376 2.88461H13.5577C13.9396 2.88651 14.3054 3.03907 14.5755 3.30915C14.8455 3.57922 14.9981 3.94498 15 4.32692ZM13.2692 4.61538H2.34376C2.13688 4.61529 1.93087 4.58863 1.73078 4.53605V11.25C1.73078 11.3265 1.76117 11.3999 1.81527 11.454C1.86936 11.5081 1.94274 11.5385 2.01924 11.5385H13.2692V4.61538Z" fill="black"/>
</svg>
