<svg width="137" height="19" viewBox="0 0 137 19" fill="none" xmlns="http://www.w3.org/2000/svg">
<path d="M0.0750001 18V0.499999H3.425L10.875 12.85H9.1L16.425 0.499999H19.75L19.8 18H16L15.975 6.325H16.675L10.825 16.15H9L3.025 6.325H3.875V18H0.0750001ZM22.902 18L30.702 0.499999H34.702L42.527 18H38.277L31.877 2.55H33.477L27.052 18H22.902ZM26.802 14.25L27.877 11.175H36.877L37.977 14.25H26.802ZM51.3426 18.3C49.9426 18.3 48.6009 18.1167 47.3176 17.75C46.0342 17.3667 45.0009 16.875 44.2176 16.275L45.5926 13.225C46.3426 13.7583 47.2259 14.2 48.2426 14.55C49.2759 14.8833 50.3176 15.05 51.3676 15.05C52.1676 15.05 52.8092 14.975 53.2926 14.825C53.7926 14.6583 54.1592 14.4333 54.3926 14.15C54.6259 13.8667 54.7426 13.5417 54.7426 13.175C54.7426 12.7083 54.5592 12.3417 54.1926 12.075C53.8259 11.7917 53.3426 11.5667 52.7426 11.4C52.1426 11.2167 51.4759 11.05 50.7426 10.9C50.0259 10.7333 49.3009 10.5333 48.5676 10.3C47.8509 10.0667 47.1926 9.76667 46.5926 9.4C45.9926 9.03333 45.5009 8.55 45.1176 7.95C44.7509 7.35 44.5676 6.58333 44.5676 5.65C44.5676 4.65 44.8342 3.74167 45.3676 2.925C45.9176 2.09167 46.7342 1.43333 47.8176 0.949999C48.9176 0.449999 50.2926 0.2 51.9426 0.2C53.0426 0.2 54.1259 0.333333 55.1926 0.599999C56.2592 0.849999 57.2009 1.23333 58.0176 1.75L56.7676 4.825C55.9509 4.35833 55.1342 4.01667 54.3176 3.8C53.5009 3.56667 52.7009 3.45 51.9176 3.45C51.1342 3.45 50.4926 3.54167 49.9926 3.725C49.4926 3.90833 49.1342 4.15 48.9176 4.45C48.7009 4.73333 48.5926 5.06667 48.5926 5.45C48.5926 5.9 48.7759 6.26667 49.1426 6.55C49.5092 6.81667 49.9926 7.03333 50.5926 7.2C51.1926 7.36667 51.8509 7.53333 52.5676 7.7C53.3009 7.86667 54.0259 8.05833 54.7426 8.275C55.4759 8.49167 56.1426 8.78333 56.7426 9.15C57.3426 9.51667 57.8259 10 58.1926 10.6C58.5759 11.2 58.7676 11.9583 58.7676 12.875C58.7676 13.8583 58.4926 14.7583 57.9426 15.575C57.3926 16.3917 56.5676 17.05 55.4676 17.55C54.3842 18.05 53.0092 18.3 51.3426 18.3ZM68.535 18.3C67.135 18.3 65.7933 18.1167 64.51 17.75C63.2266 17.3667 62.1933 16.875 61.41 16.275L62.785 13.225C63.535 13.7583 64.4183 14.2 65.435 14.55C66.4683 14.8833 67.51 15.05 68.56 15.05C69.36 15.05 70.0016 14.975 70.485 14.825C70.985 14.6583 71.3516 14.4333 71.585 14.15C71.8183 13.8667 71.935 13.5417 71.935 13.175C71.935 12.7083 71.7516 12.3417 71.385 12.075C71.0183 11.7917 70.535 11.5667 69.935 11.4C69.335 11.2167 68.6683 11.05 67.935 10.9C67.2183 10.7333 66.4933 10.5333 65.76 10.3C65.0433 10.0667 64.385 9.76667 63.785 9.4C63.185 9.03333 62.6933 8.55 62.31 7.95C61.9433 7.35 61.76 6.58333 61.76 5.65C61.76 4.65 62.0266 3.74167 62.56 2.925C63.11 2.09167 63.9266 1.43333 65.01 0.949999C66.11 0.449999 67.485 0.2 69.135 0.2C70.235 0.2 71.3183 0.333333 72.385 0.599999C73.4516 0.849999 74.3933 1.23333 75.21 1.75L73.96 4.825C73.1433 4.35833 72.3266 4.01667 71.51 3.8C70.6933 3.56667 69.8933 3.45 69.11 3.45C68.3266 3.45 67.685 3.54167 67.185 3.725C66.685 3.90833 66.3266 4.15 66.11 4.45C65.8933 4.73333 65.785 5.06667 65.785 5.45C65.785 5.9 65.9683 6.26667 66.335 6.55C66.7016 6.81667 67.185 7.03333 67.785 7.2C68.385 7.36667 69.0433 7.53333 69.76 7.7C70.4933 7.86667 71.2183 8.05833 71.935 8.275C72.6683 8.49167 73.335 8.78333 73.935 9.15C74.535 9.51667 75.0183 10 75.385 10.6C75.7683 11.2 75.96 11.9583 75.96 12.875C75.96 13.8583 75.685 14.7583 75.135 15.575C74.585 16.3917 73.76 17.05 72.66 17.55C71.5766 18.05 70.2016 18.3 68.535 18.3Z" fill="black"/>
<path d="M79.9773 18V0.499999H88.5273C90.7273 0.499999 92.3773 0.916666 93.4773 1.75C94.594 2.58333 95.1523 3.68333 95.1523 5.05C95.1523 5.96667 94.9273 6.76667 94.4773 7.45C94.0273 8.11667 93.4107 8.63333 92.6273 9C91.844 9.36667 90.944 9.55 89.9273 9.55L90.4023 8.525C91.5023 8.525 92.4773 8.70833 93.3273 9.075C94.1773 9.425 94.8357 9.95 95.3023 10.65C95.7857 11.35 96.0273 12.2083 96.0273 13.225C96.0273 14.725 95.4357 15.9 94.2523 16.75C93.069 17.5833 91.3273 18 89.0273 18H79.9773ZM84.0023 14.95H88.7273C89.7773 14.95 90.569 14.7833 91.1023 14.45C91.6523 14.1 91.9273 13.55 91.9273 12.8C91.9273 12.0667 91.6523 11.525 91.1023 11.175C90.569 10.8083 89.7773 10.625 88.7273 10.625H83.7023V7.675H88.0273C89.0107 7.675 89.7607 7.50833 90.2773 7.175C90.8107 6.825 91.0773 6.3 91.0773 5.6C91.0773 4.91667 90.8107 4.40833 90.2773 4.075C89.7607 3.725 89.0107 3.55 88.0273 3.55H84.0023V14.95ZM108.119 18.3C105.635 18.3 103.694 17.6083 102.294 16.225C100.894 14.8417 100.194 12.8667 100.194 10.3V0.499999H104.244V10.15C104.244 11.8167 104.585 13.0167 105.269 13.75C105.952 14.4833 106.91 14.85 108.144 14.85C109.377 14.85 110.335 14.4833 111.019 13.75C111.702 13.0167 112.044 11.8167 112.044 10.15V0.499999H116.044V10.3C116.044 12.8667 115.344 14.8417 113.944 16.225C112.544 17.6083 110.602 18.3 108.119 18.3ZM125.402 18V10.85L126.327 13.3L118.627 0.499999H122.927L128.827 10.325H126.352L132.277 0.499999H136.252L128.552 13.3L129.452 10.85V18H125.402Z" fill="#D3321C"/>
</svg>
