<svg width="20" height="18" viewBox="0 0 20 18" fill="none" xmlns="http://www.w3.org/2000/svg">
<path d="M8.5 18C9.32843 18 10 17.3284 10 16.5C10 15.6716 9.32843 15 8.5 15C7.67157 15 7 15.6716 7 16.5C7 17.3284 7.67157 18 8.5 18Z" fill="black"/>
<path d="M15.5 18C16.3284 18 17 17.3284 17 16.5C17 15.6716 16.3284 15 15.5 15C14.6716 15 14 15.6716 14 16.5C14 17.3284 14.6716 18 15.5 18Z" fill="black"/>
<path d="M19 4.00001H5.334L4.18 1.23001C4.02851 0.865148 3.77211 0.55348 3.4433 0.334507C3.11448 0.115533 2.72806 -0.000885946 2.333 5.07658e-06H0V2.00001H2.334L7.077 13.385C7.232 13.757 7.597 14 8 14H16C16.417 14 16.79 13.741 16.937 13.352L19.937 5.35201C19.9932 5.2006 20.012 5.03786 19.9918 4.87763C19.9716 4.7174 19.913 4.56441 19.8211 4.43167C19.7291 4.29893 19.6064 4.19037 19.4634 4.11522C19.3205 4.04006 19.1615 4.00054 19 4.00001ZM12 12L9 9H11V6.00001H13V9H15L12 12Z" fill="black"/>
</svg>
