<svg width="20" height="18" viewBox="0 0 20 18" fill="none" xmlns="http://www.w3.org/2000/svg">
<path d="M18.4 3.2H2.4C2.18783 3.2 1.98434 3.11571 1.83431 2.96569C1.68429 2.81566 1.6 2.61217 1.6 2.4C1.6 2.18783 1.68429 1.98434 1.83431 1.83431C1.98434 1.68429 2.18783 1.6 2.4 1.6H16C16.2122 1.6 16.4157 1.51571 16.5657 1.36569C16.7157 1.21566 16.8 1.01217 16.8 0.8C16.8 0.587827 16.7157 0.384344 16.5657 0.234315C16.4157 0.0842856 16.2122 0 16 0H2.4C1.76429 0.00263237 1.15537 0.256334 0.705852 0.705852C0.256334 1.15537 0.00263237 1.76429 0 2.4V15.2C0.00263237 15.8357 0.256334 16.4446 0.705852 16.8941C1.15537 17.3437 1.76429 17.5974 2.4 17.6H18.4C18.8243 17.6 19.2313 17.4314 19.5314 17.1314C19.8314 16.8313 20 16.4243 20 16V4.8C20 4.37565 19.8314 3.96869 19.5314 3.66863C19.2313 3.36857 18.8243 3.2 18.4 3.2ZM14.8 11.6C14.5627 11.6 14.3307 11.5296 14.1333 11.3978C13.936 11.2659 13.7822 11.0785 13.6913 10.8592C13.6005 10.6399 13.5768 10.3987 13.6231 10.1659C13.6694 9.93312 13.7836 9.7193 13.9515 9.55147C14.1193 9.38365 14.3331 9.26936 14.5659 9.22306C14.7987 9.17675 15.0399 9.20052 15.2592 9.29135C15.4785 9.38217 15.6659 9.53598 15.7978 9.73332C15.9296 9.93066 16 10.1627 16 10.4C16 10.7183 15.8736 11.0235 15.6485 11.2485C15.4235 11.4736 15.1183 11.6 14.8 11.6Z" fill="black"/>
</svg>
