<svg width="15" height="15" viewBox="0 0 15 15" fill="none" xmlns="http://www.w3.org/2000/svg">
<path d="M7.5 0C6.01664 0 4.56659 0.439867 3.33323 1.26398C2.09986 2.08809 1.13856 3.25943 0.570907 4.62987C0.00324963 6.00032 -0.145275 7.50832 0.144114 8.96318C0.433503 10.418 1.14781 11.7544 2.1967 12.8033C3.2456 13.8522 4.58197 14.5665 6.03682 14.8559C7.49168 15.1453 8.99968 14.9967 10.3701 14.4291C11.7406 13.8614 12.9119 12.9001 13.736 11.6668C14.5601 10.4334 15 8.98336 15 7.5C14.9962 5.51205 14.2048 3.60661 12.7991 2.20091C11.3934 0.795212 9.48795 0.003812 7.5 0ZM7.5 13.8462C6.24485 13.8462 5.01789 13.474 3.97427 12.7766C2.93065 12.0793 2.11725 11.0882 1.63692 9.92857C1.1566 8.76896 1.03092 7.49296 1.27579 6.26193C1.52066 5.03089 2.12507 3.90012 3.01259 3.01259C3.90012 2.12507 5.0309 1.52065 6.26193 1.27579C7.49296 1.03092 8.76896 1.15659 9.92857 1.63692C11.0882 2.11724 12.0793 2.93065 12.7766 3.97426C13.474 5.01788 13.8462 6.24485 13.8462 7.5C13.8442 9.18252 13.175 10.7956 11.9853 11.9853C10.7956 13.175 9.18252 13.8442 7.5 13.8462ZM5.19231 7.5C5.19231 7.98434 5.3447 8.45641 5.6279 8.84933C5.91111 9.24225 6.31076 9.5361 6.77025 9.68927C7.22973 9.84243 7.72577 9.84714 8.18808 9.70272C8.65039 9.55831 9.05555 9.27209 9.34616 8.88461C9.43911 8.76379 9.57561 8.6841 9.72652 8.66254C9.87743 8.64098 10.0308 8.67927 10.1538 8.76923C10.2763 8.86104 10.3572 8.99771 10.3788 9.14918C10.4005 9.30065 10.361 9.45451 10.2692 9.57692C9.83332 10.1581 9.22559 10.5875 8.53212 10.8041C7.83865 11.0207 7.0946 11.0136 6.40537 10.7839C5.71613 10.5542 5.11666 10.1134 4.69186 9.524C4.26705 8.93462 4.03846 8.22651 4.03846 7.5C4.03846 6.77348 4.26705 6.06538 4.69186 5.476C5.11666 4.88662 5.71613 4.44584 6.40537 4.2161C7.0946 3.98635 7.83865 3.97929 8.53212 4.19591C9.22559 4.41254 9.83332 4.84186 10.2692 5.42308C10.361 5.54548 10.4005 5.69935 10.3788 5.85082C10.3572 6.00229 10.2763 6.13896 10.1538 6.23077C10.0308 6.32073 9.87743 6.35902 9.72652 6.33746C9.57561 6.3159 9.43911 6.2362 9.34616 6.11538C9.05555 5.72791 8.65039 5.44169 8.18808 5.29728C7.72577 5.15286 7.22973 5.15757 6.77025 5.31073C6.31076 5.46389 5.91111 5.75775 5.6279 6.15067C5.3447 6.54359 5.19231 7.01565 5.19231 7.5Z" fill="#D9D9D9"/>
</svg>
